<?xml version="1.0" encoding="utf-8"?>
<!-- Generator: Adobe Illustrator 17.1.0, SVG Export Plug-In . SVG Version: 6.00 Build 0)  -->
<!DOCTYPE svg PUBLIC "-//W3C//DTD SVG 1.1//EN" "http://www.w3.org/Graphics/SVG/1.1/DTD/svg11.dtd">
<svg version="1.1" id="Calque_1" xmlns="http://www.w3.org/2000/svg" xmlns:xlink="http://www.w3.org/1999/xlink" x="0px" y="0px"
	 viewBox="0 0 50 50" enable-background="new 0 0 50 50" xml:space="preserve">
<title>Zeichenfläche 1</title>
<path d="M22.4,9.5v25.4c-0.1-0.5-0.4-0.9-0.7-1.3L15,26.9c-1.1-0.9-2.7-0.8-3.6,0.2c-0.8,1-0.8,2.4,0,3.3l11.7,11.8c1,1,2.5,1,3.5,0
	c0,0,0,0,0,0l11.7-11.8c1-1,1-2.6,0-3.6s-2.6-1-3.6,0l-6.7,6.8c-0.4,0.3-0.5,0.8-0.7,1.3V9.5c0-1.4-1.1-2.5-2.5-2.5
	S22.4,8.1,22.4,9.5z"/>
</svg>
