<?xml version="1.0" standalone="no"?>
<!DOCTYPE svg PUBLIC "-//W3C//DTD SVG 1.1//EN" "http://www.w3.org/Graphics/SVG/1.1/DTD/svg11.dtd"><svg width="800" height="800" title="polygons" version="1.1" viewBox="0 0 800 800" xmlns="http://www.w3.org/2000/svg"><g transform="translate(0, 0)"><desc>seed:3615};sf:i+i*7;rf:10*sin(i/2);xf:200;yf:650;qt:20;sd:3;rn:-2;minrd:160;maxrd:50;mina:202;maxa:360;cv:curveBasis;rd:false</desc> <path stroke="#000000" stroke-width="0.4mm" fill="none" d="M140.1,501.7L133.6,547.4C127.2,593.1,114.4,684.6,150.7,713.0C187.1,741.5,272.8,706.9,315.6,689.6L358.4,672.3"/><path stroke="#000000" stroke-width="0.4mm" fill="none" d="M124.3,500.0L121.6,548.5C118.8,596.9,113.4,693.7,154.0,720.3C194.6,746.8,281.2,703.1,324.4,681.3L367.7,659.4"/><path stroke="#000000" stroke-width="0.4mm" fill="none" d="M110.9,498.2L111.3,549.0C111.6,599.8,112.4,701.4,156.6,726.5C200.7,751.6,288.4,700.2,332.2,674.4L376.0,648.7"/><path stroke="#000000" stroke-width="0.4mm" fill="none" d="M102.6,493.9L104.4,547.0C106.2,600.1,109.9,706.3,156.8,731.2C203.7,756.2,293.8,699.9,338.8,671.8L383.9,643.7"/><path stroke="#000000" stroke-width="0.4mm" fill="none" d="M100.8,485.6L101.9,541.0C103.0,596.4,105.1,707.2,153.6,734.0C202.1,760.8,297.0,703.6,344.5,675.0L392.0,646.3"/><path stroke="#000000" stroke-width="0.4mm" fill="none" d="M106.2,473.4L104.1,531.1C102.1,588.8,98.0,704.2,147.0,734.8C195.9,765.4,297.9,711.2,348.9,684.1L399.9,657.0"/><path stroke="#000000" stroke-width="0.4mm" fill="none" d="M117.4,459.1L110.5,518.8C103.6,578.4,89.8,697.7,138.0,733.5C186.2,769.3,296.4,721.6,351.5,697.7L406.6,673.9"/><path stroke="#000000" stroke-width="0.4mm" fill="none" d="M131.5,445.2L119.1,506.3C106.6,567.4,81.7,689.6,128.4,730.9C175.1,772.2,293.4,732.6,352.5,712.9L411.7,693.1"/><path stroke="#000000" stroke-width="0.4mm" fill="none" d="M144.2,433.1L126.8,495.4C109.5,557.7,74.8,682.2,120.0,728.4C165.3,774.6,290.5,742.3,353.2,726.2L415.8,710.1"/><path stroke="#000000" stroke-width="0.4mm" fill="none" d="M150.9,423.3L130.4,487.0C110.0,550.8,69.1,678.4,114.1,728.0C159.1,777.6,290.0,749.2,355.5,735.0L420.9,720.8"/><path stroke="#000000" stroke-width="0.4mm" fill="none" d="M148.4,415.6L127.5,481.7C106.5,547.7,64.7,679.8,111.4,730.9C158.1,782.1,293.5,752.3,361.1,737.4L428.8,722.5"/><path stroke="#000000" stroke-width="0.4mm" fill="none" d="M136.0,410.4L117.4,479.5C98.9,548.7,61.7,686.9,112.2,737.6C162.8,788.3,301.1,751.3,370.3,732.9L439.5,714.4"/><path stroke="#000000" stroke-width="0.4mm" fill="none" d="M115.8,408.2L101.9,480.8C88.1,553.4,60.4,698.6,116.4,746.9C172.3,795.2,311.9,746.6,381.7,722.3L451.5,697.9"/><path stroke="#000000" stroke-width="0.4mm" fill="none" d="M92.0,409.1L84.2,484.9C76.5,560.7,60.9,712.4,122.7,757.0C184.5,801.6,323.5,739.3,393.1,708.1L462.6,676.9"/><path stroke="#000000" stroke-width="0.4mm" fill="none" d="M69.9,411.1L68.0,489.6C66.0,568.1,62.1,725.1,129.1,766.0C196.1,807.0,334.0,731.9,403.0,694.3L471.9,656.8"/><path stroke="#000000" stroke-width="0.4mm" fill="none" d="M54.2,411.0L56.1,491.8C58.1,572.6,62.0,734.2,132.9,772.9C203.9,811.6,341.9,727.4,410.9,685.3L479.9,643.3"/><path stroke="#000000" stroke-width="0.4mm" fill="none" d="M47.8,405.5L50.6,488.6C53.3,571.7,58.8,737.9,132.2,777.0C205.5,816.2,346.7,728.3,417.3,684.4L487.8,640.5"/><path stroke="#000000" stroke-width="0.4mm" fill="none" d="M52.1,393.6L52.0,479.1C52.0,564.5,52.0,735.4,126.0,778.2C200.0,820.9,348.0,735.5,422.0,692.8L496.0,650.1"/><path stroke="#000000" stroke-width="0.4mm" fill="none" d="M66.2,377.0L60.2,464.6C54.3,552.2,42.4,727.3,115.3,776.2C188.1,825.1,345.7,747.8,424.5,709.2L503.3,670.6"/><path stroke="#000000" stroke-width="0.4mm" fill="none" d="M86.9,359.2L73.2,448.2C59.5,537.2,32.1,715.3,102.4,771.7C172.6,828.0,340.5,762.8,424.4,730.1L508.4,697.5"/></g></svg>