<?xml version="1.0" encoding="utf-8"?>
<!-- Generator: Adobe Illustrator 17.1.0, SVG Export Plug-In . SVG Version: 6.00 Build 0)  -->
<!DOCTYPE svg PUBLIC "-//W3C//DTD SVG 1.1//EN" "http://www.w3.org/Graphics/SVG/1.1/DTD/svg11.dtd">
<svg version="1.1" xmlns="http://www.w3.org/2000/svg" xmlns:xlink="http://www.w3.org/1999/xlink" x="0px" y="0px"
	 viewBox="0 0 64 64" enable-background="new 0 0 64 64" xml:space="preserve">
<g id="green" display="none">
	<g id="Layer_1" display="inline">
		<g opacity="0.2">
			<path fill="#231F20" d="M51,21.4c1.7,0,3,1.3,3,3v18c0,1.7-1.3,3-3,3H11c-1.7,0-3-1.3-3-3v-18c0-1.7,1.3-3,3-3H51z"/>
		</g>
		<g>
			<path fill="#4F5D73" d="M51,20c1.7,0,3,1.3,3,3v18c0,1.7-1.3,3-3,3H11c-1.7,0-3-1.3-3-3V23c0-1.7,1.3-3,3-3H51z"/>
		</g>
		<g opacity="0.2">
			<circle fill="#231F20" cx="31" cy="33.4" r="5"/>
		</g>
		<g opacity="0.2">
			<circle fill="#231F20" cx="18" cy="33.4" r="5"/>
		</g>
		<g opacity="0.2">
			<circle fill="#231F20" cx="44" cy="33.4" r="5"/>
		</g>
		<g>
			<circle fill="#A3A3A3" cx="31" cy="32" r="5"/>
		</g>
		<g>
			<circle fill="#A3A3A3" cx="18" cy="32" r="5"/>
		</g>
		<g>
			<circle fill="#76C2AF" cx="44" cy="32" r="5"/>
		</g>
	</g>
	<g id="Layer_2" display="inline">
	</g>
</g>
<g id="red">
	<g id="Layer_1_2_">
		<g opacity="0.2">
			<path fill="#231F20" d="M51,21.4c1.7,0,3,1.3,3,3v18c0,1.7-1.3,3-3,3H11c-1.7,0-3-1.3-3-3v-18c0-1.7,1.3-3,3-3H51z"/>
		</g>
		<g>
			<path fill="#4F5D73" d="M51,20c1.7,0,3,1.3,3,3v18c0,1.7-1.3,3-3,3H11c-1.7,0-3-1.3-3-3V23c0-1.7,1.3-3,3-3H51z"/>
		</g>
		<g opacity="0.2">
			<circle fill="#231F20" cx="31" cy="33.4" r="5"/>
		</g>
		<g opacity="0.2">
			<circle fill="#231F20" cx="18" cy="33.4" r="5"/>
		</g>
		<g opacity="0.2">
			<circle fill="#231F20" cx="44" cy="33.4" r="5"/>
		</g>
		<g>
			<circle fill="#A3A3A3" cx="31" cy="32" r="5"/>
		</g>
		<g>
			<circle fill="#C75C5C" cx="18" cy="32" r="5"/>
		</g>
		<g>
			<circle fill="#A3A3A3" cx="44" cy="32" r="5"/>
		</g>
	</g>
	<g id="Layer_2_2_">
	</g>
</g>
<g id="orange" display="none">
	<g id="Layer_1_1_" display="inline">
		<g opacity="0.2">
			<path fill="#231F20" d="M51,21.4c1.7,0,3,1.3,3,3v18c0,1.7-1.3,3-3,3H11c-1.7,0-3-1.3-3-3v-18c0-1.7,1.3-3,3-3H51z"/>
		</g>
		<g>
			<path fill="#4F5D73" d="M51,20c1.7,0,3,1.3,3,3v18c0,1.7-1.3,3-3,3H11c-1.7,0-3-1.3-3-3V23c0-1.7,1.3-3,3-3H51z"/>
		</g>
		<g opacity="0.2">
			<circle fill="#231F20" cx="31" cy="33.4" r="5"/>
		</g>
		<g opacity="0.2">
			<circle fill="#231F20" cx="18" cy="33.4" r="5"/>
		</g>
		<g opacity="0.2">
			<circle fill="#231F20" cx="44" cy="33.4" r="5"/>
		</g>
		<g>
			<circle fill="#F5CF87" cx="31" cy="32" r="5"/>
		</g>
		<g>
			<circle fill="#A3A3A3" cx="18" cy="32" r="5"/>
		</g>
		<g>
			<circle fill="#A3A3A3" cx="44" cy="32" r="5"/>
		</g>
	</g>
	<g id="Layer_2_1_" display="inline">
	</g>
</g>
</svg>
